# AST/ASF file generated using VICON BodyLanguage
# -----------------------------------------------
:version 1.10
:name VICON
:units
  mass 1.0
  length 0.45
  angle deg
:documentation
   .ast/.asf automatically generated from VICON data using
   VICON BodyBuilder and BodyLanguage model FoxedUp or BRILLIANT.MOD
:root
   order TX TY TZ RX RY RZ
   axis XYZ
   position 0 0 0  
   orientation 0 0 0 
:bonedata
  begin
     id 1 
     name lhipjoint
     direction 0.602128 -0.715006 0.355257 
     length 2.21237 
     axis 0 0 0  XYZ
  end
  begin
     id 2 
     name lfemur
     direction 0.34202 -0.939693 0  
     length 6.71649  
     axis 0 0 20  XYZ
    dof rx ry rz
    limits (-160.0 20.0)
           (-70.0 70.0)
           (-60.0 70.0)
  end
  begin
     id 3 
     name ltibia
     direction 0.34202 -0.939693 0   
     length 6.97123   
     axis 0 0 20   XYZ
    dof rx
    limits (-10.0 170.0)
  end
  begin
     id 4 
     name lfoot
     direction 0.0655697 -0.180151 0.981451   
     length 1.80924   
     axis -90 7.62852e-016 20   XYZ
    dof rx rz
    limits (-45.0 90.0)
           (-70.0 20.0)
  end
  begin
     id 5 
     name ltoes
     direction 1.53545e-011 -4.21827e-011 1   
     length 0.916331   
     axis -90 7.62852e-016 20   XYZ
    dof rx
    limits (-90.0 20.0)
  end
  begin
     id 6 
     name rhipjoint
     direction -0.625414 -0.698792 0.347201   
     length 2.2637  
     axis 0 0 0  XYZ 
  end
  begin
     id 7 
     name rfemur
     direction -0.34202 -0.939693 0   
     length 7.07595   
     axis 0 0 -20   XYZ
    dof rx ry rz
    limits (-160.0 20.0)
           (-70.0 70.0)
           (-70.0 60.0)
  end
  begin
     id 8 
     name rtibia
     direction -0.34202 -0.939693 0   
     length 7.22924   
     axis 0 0 -20   XYZ
    dof rx
    limits (-10.0 170.0)
 end
 begin
     id 9 
     name rfoot
     direction -0.0766747 -0.210662 0.974547   
     length 1.98482  
     axis -90 -7.62852e-016 -20   XYZ
    dof rx rz
    limits (-45.0 90.0)
           (-20.0 70.0)
  end
  begin
     id 10 
     name rtoes
     direction -1.53532e-011 -4.21867e-011 1   
     length 0.999842   
     axis -90 -7.62852e-016 -20   XYZ
    dof rx
    limits (-90.0 20.0)
  end
  begin
     id 11 
     name lowerback
     direction -0.0224668 0.997354 -0.0691422   
     length 2.09945   
     axis 0 0 0   XYZ
    dof rx ry rz
    limits (-20.0 45.0)
           (-30.0 30.0)
           (-30.0 30.0)
  end
  begin
     id 12 
     name upperback
     direction 0.0134698 0.998451 -0.0539888   
     length 2.09758   
     axis 0 0 0   XYZ
    dof rx ry rz
    limits (-20.0 45.0)
           (-30.0 30.0)
           (-30.0 30.0)
  end
  begin
     id 13 
     name thorax
     direction 0.0241905 0.99948 -0.0213333   
     length 2.10428   
     axis 0 0 0   XYZ
    dof rx ry rz
    limits (-20.0 45.0)
           (-30.0 30.0)
           (-30.0 30.0)
  end
  begin
     id 14 
     name lowerneck
     direction -0.00866847 0.995978 0.0891737   
     length 1.3959   
     axis 0 0 0   XYZ
    dof rx ry rz
    limits (-20.0 45.0)
           (-30.0 30.0)
           (-30.0 30.0)
  end
  begin
     id 15 
     name upperneck
     direction 0.0680679 0.992203 0.104404   
     length 1.39452   
     axis 0 0 0   XYZ
    dof rx ry rz
    limits (-20.0 45.0)
           (-30.0 30.0)
           (-30.0 30.0)
  end
  begin
     id 16
     name head
     direction 0.0242216 0.999358 0.0264054  
     length 1.40433  
     axis 0 0 0   XYZ
    dof rx ry rz
    limits (-20.0 45.0)
           (-30.0 30.0)
           (-30.0 30.0)
  end
  begin
     id 17 
     name lclavicle
     direction 0.929368 0.362991 -0.0671771  
     length 3.04887  
     axis 0 0 0   XYZ
    dof ry rz
    limits (-20.0 10.0)
           (0.0 20.0)
  end
  begin
     id 18 
     name lhumerus
     direction 1 -4.48967e-011 -7.13741e-028   
     length 4.77195   
     axis -180 -30 -90   XYZ
    dof rx ry rz
    limits (-60.0 90.0)
           (-90.0 90.0)
           (-90.0 90.0)
  end
  begin
     id 19
     name lradius
     direction 1 -4.48977e-011 3.60404e-027   
     length 2.98444   
     axis -180 -30 -90   XYZ
    dof rx
    limits (-10.0 170.0)
  end
  begin
     id 20
     name lwrist
     direction 1 -4.48997e-011 7.54877e-027   
     length 1.49222   
     axis -7.18178e-015 90 90   XYZ
    dof ry
    limits (-180.0 0.0)
 end
  begin
     id 21 
     name lhand
     direction 1 -4.489e-011 1.51105e-026   
     length 0.992285   
     axis -9.63605e-015 90 90   XYZ
    dof rx rz
    limits (-90.0 90.0)
           (-45.0 45.0)
  end
  begin
     id 22 
     name lfingers
     direction 1 -4.48998e-011 3.01948e-026   
     length 0.800006   
     axis -1.92718e-014 90 90   XYZ
    dof rx
    limits (0.0 90.0)
  end
  begin
     id 23
     name lthumb
     direction 0.707107 -6.34881e-011 0.707107   
     length 1.14865   
     axis -90 45 -3.53137e-014   XYZ
    dof rx rz
    limits (-45.0 45.0)
           (-45.0 45.0)
  end
  begin
     id 24 
     name rclavicle
     direction -0.945672 0.324529 0.0196374   
     length 3.4236  
     axis 0 0 0   XYZ 
    dof ry rz
    limits (-10.0 20.0)
           (-20.0 0.0)
  end
  begin
     id 25 
     name rhumerus
     direction -1 -4.4896e-011 1.02757e-029  
     length 4.62052   
     axis -180 30 90   XYZ
    dof rx ry rz
    limits (-90.0 60.0)
           (-90.0 90.0)
           (-90.0 90.0)
  end
  begin
     id 26 
     name rradius
     direction -1 -4.48982e-011 3.85962e-027   
     length 2.95332   
     axis -180 30 90   XYZ
    dof rx
    limits (-10.0 170.0)
  end
  begin
     id 27 
     name rwrist
     direction -1 -4.48961e-011 7.55118e-027   
     length 1.47666   
     axis -7.18178e-015 -90 -90   XYZ
    dof ry
    limits (-180.0 0.0)
  end
  begin
     id 28
     name rhand
     direction -1 -4.48984e-011 1.50994e-026   
     length 0.990956   
     axis -9.63605e-015 -90 -90   XYZ
    dof rx rz
    limits (-90.0 90.0)
           (-45.0 45.0)
  end
  begin
     id 29
     name rfingers
     direction -1 -4.4892e-011 3.02158e-026   
     length 0.798934   
     axis -1.92718e-014 -90 -90   XYZ
    dof rx
    limits (0.0 90.0)
  end
  begin
     id 30
     name rthumb
     direction -0.707107 -6.34916e-011 0.707107   
     length 1.14711   
     axis -90 -45 3.53137e-014   XYZ
    dof rx rz
    limits (-45.0 45.0)
           (-45.0 45.0)
  end
:hierarchy
  begin
    root lhipjoint rhipjoint lowerback
    lhipjoint lfemur
    lfemur ltibia
    ltibia lfoot
    lfoot ltoes
    rhipjoint rfemur
    rfemur rtibia
    rtibia rfoot
    rfoot rtoes
    lowerback upperback
    upperback thorax
    thorax lowerneck lclavicle rclavicle
    lowerneck upperneck
    upperneck head
    lclavicle lhumerus
    lhumerus lradius
    lradius lwrist
    lwrist lhand lthumb
    lhand lfingers
    rclavicle rhumerus
    rhumerus rradius
    rradius rwrist
    rwrist rhand rthumb
    rhand rfingers
  end

#!OML:ASF H:\ManfredObstacles\Project 1\Capture day 1\Session 1\Male.ASF
:FULLY-SPECIFIED
:DEGREES
196
root -2.2757 15.798 32.7116 -169.504 -11.6565 -179.044
lowerback -9.05974 -3.52824 -2.30582
upperback 1.51251 -4.49751 0.75688
thorax 6.91337 -2.31221 1.41024
lowerneck 1.04258 -2.43678 -5.3258
upperneck -8.12676 -3.11809 10.5969
head -2.30145 -1.90351 4.14563
rclavicle -7.90666e-014 3.97569e-016
rhumerus -40.7167 -25.7014 -71.6057
rradius 27.8068
rwrist 32.6965
rhand 1.38964 -6.84195
rfingers 7.12502
rthumb 26.9207 -34.9446
lclavicle -7.90666e-014 3.97569e-016
lhumerus -27.8315 25.2047 77.074
lradius 12.3465
lwrist -47.2978
lhand -7.41343 8.28913
lfingers 7.12502
lthumb 18.4732 37.432
rfemur -40.1658 -2.61958 19.579
rtibia 38.0726
rfoot -10.945 5.47369
rtoes 15.1224
lfemur -1.84756 -5.78781 -17.0457
ltibia 23.0412
lfoot -10.3236 -16.1754
ltoes -10.791
197
root -2.23888 15.8181 32.5988 -169.286 -11.4052 -178.901
lowerback -9.0137 -3.49383 -2.28728
upperback 1.5306 -4.45465 0.757705
thorax 6.9028 -2.29067 1.40966
lowerneck 0.805323 -2.3909 -5.27808
upperneck -7.90895 -3.06094 10.6173
head -2.20284 -1.86725 4.13509
rclavicle -1.77415e-014 9.14409e-015
rhumerus -40.1971 -25.0464 -72.3197
rradius 28.2994
rwrist 31.9895
rhand 1.58282 -6.95024
rfingers 7.12502
rthumb 27.1055 -35.0242
lclavicle -1.77415e-014 9.14409e-015
lhumerus -26.6855 21.6024 78.988
lradius 13.321
lwrist -43.4218
lhand -7.29914 8.66005
lfingers 7.12502
lthumb 18.5831 37.7924
rfemur -40.0868 -2.59091 20.0639
rtibia 38.0207
rfoot -11.9597 5.80125
rtoes 18.6664
lfemur -1.85798 -5.851 -16.6432
ltibia 23.2519
lfoot -9.34439 -16.1242
ltoes -9.90914
198
root -2.2 15.8416 32.4838 -169.197 -11.2147 -178.891
lowerback -8.8815 -3.49933 -2.43013
upperback 1.61797 -4.44674 0.733232
thorax 6.92936 -2.29297 1.46958
lowerneck 0.62193 -2.3444 -5.22606
upperneck -7.51651 -3.04405 10.1735
head -2.30436 -1.81524 4.41544
rclavicle 6.36111e-015 0
rhumerus -39.6108 -24.4085 -72.9888
rradius 28.6241
rwrist 31.497
rhand 1.57312 -6.96718
rfingers 7.12502
rthumb 27.0963 -35.0426
lclavicle 6.36111e-015 0
lhumerus -25.7772 18.3029 80.589
lradius 14.4282
lwrist -39.8002
lhand -7.30104 8.82408
lfingers 7.12502
lthumb 18.5813 37.9566
rfemur -39.796 -2.61391 20.3878
rtibia 38.047
rfoot -12.2835 6.093
rtoes 19.0528
lfemur -1.67935 -5.96052 -16.4099
ltibia 23.4219
lfoot -8.55656 -15.9239
ltoes -11.3483
199
root -2.15711 15.8621 32.3688 -169.165 -10.9826 -179.007
lowerback -8.66041 -3.5047 -2.73339
upperback 1.68668 -4.42016 0.650009
thorax 6.89224 -2.29115 1.56613
lowerneck 0.517344 -2.25401 -5.23838
upperneck -7.2631 -2.92573 10.1706
head -2.21035 -1.74575 4.40517
rclavicle 4.67144e-014 -2.38542e-015
rhumerus -39.0485 -23.9424 -73.5526
rradius 28.6693
rwrist 31.3416
rhand 1.52441 -6.89636
rfingers 7.12502
rthumb 27.0497 -34.979
lclavicle 4.67144e-014 -2.38542e-015
lhumerus -25.2059 15.5768 81.7038
lradius 15.6335
lwrist -36.7338
lhand -7.45634 8.68225
lfingers 7.12502
lthumb 18.4319 37.829
rfemur -39.3884 -2.49572 20.5282
rtibia 38.1318
rfoot -11.6172 6.16627
rtoes 14.6315
lfemur -1.47464 -6.09405 -16.3497
ltibia 23.6613
lfoot -7.64132 -15.6322
ltoes -11.8578
200
root -2.1136 15.8786 32.2529 -169.041 -10.7007 -179.058
lowerback -8.57673 -3.43988 -2.9247
upperback 1.71434 -4.30761 0.530442
thorax 6.873 -2.24148 1.56865
lowerneck 0.460906 -2.16004 -5.26278
upperneck -6.97714 -2.80285 10.2824
head -2.1141 -1.67804 4.43986
rclavicle 4.47266e-014 -3.97569e-015
rhumerus -38.5588 -23.6925 -74.0309
rradius 28.5995
rwrist 31.5075
rhand 1.53651 -6.90356
rfingers 7.12502
rthumb 27.0612 -34.9844
lclavicle 4.47266e-014 -3.97569e-015
lhumerus -24.7519 12.9096 82.5948
lradius 16.8758
lwrist -33.8562
lhand -7.7141 8.59812
lfingers 7.12502
lthumb 18.1839 37.7682
rfemur -39.1495 -2.50585 20.8013
rtibia 38.2505
rfoot -12.1388 6.4563
rtoes 15.1088
lfemur -1.38836 -6.31469 -16.2578
ltibia 23.9882
lfoot -6.92933 -15.1852
ltoes -11.6669
201
root -2.07159 15.8931 32.1411 -168.916 -10.4827 -178.973
lowerback -8.4802 -3.36165 -2.94042
upperback 1.7154 -4.19933 0.44388
thorax 6.80719 -2.18701 1.50893
lowerneck 0.384982 -2.08681 -5.19098
upperneck -6.60231 -2.71024 10.2417
head -1.98426 -1.61834 4.3975
rclavicle -1.04362e-014 -8.74653e-015
rhumerus -38.1751 -23.3209 -74.5146
rradius 28.6302
rwrist 31.7246
rhand 1.55771 -6.88968
rfingers 7.12502
rthumb 27.0815 -34.9674
lclavicle -1.04362e-014 -8.74653e-015
lhumerus -24.3693 10.644 83.2909
lradius 18.0882
lwrist -31.3887
lhand -7.86751 8.48877
lfingers 7.12502
lthumb 18.0363 37.6725
rfemur -38.9736 -2.67575 21.2595
rtibia 38.3359
rfoot -12.46 6.88257
rtoes 15.317
lfemur -1.40489 -6.55609 -16.0086
ltibia 24.4532
lfoot -6.47265 -14.6904
ltoes -14.0884
202
root -2.03138 15.9071 32.0305 -168.819 -10.4065 -178.875
lowerback -8.33994 -3.36189 -2.92419
upperback 1.70421 -4.20329 0.397216
thorax 6.71039 -2.18688 1.45914
lowerneck 0.321687 -1.92168 -5.22424
upperneck -6.18825 -2.49524 10.1695
head -1.8544 -1.49168 4.36406
rclavicle -1.98785e-016 7.15625e-015
rhumerus -37.8556 -22.7035 -75.0295
rradius 28.7103
rwrist 31.8114
rhand 1.46536 -6.76013
rfingers 7.12502
rthumb 26.9932 -34.8516
lclavicle -1.98785e-016 7.15625e-015
lhumerus -24.0516 9.10387 83.7723
lradius 19.2426
lwrist -29.449
lhand -7.94185 8.34799
lfingers 7.12502
lthumb 17.9648 37.5383
rfemur -38.7082 -2.81902 21.6827
rtibia 38.3328
rfoot -12.7853 7.13333
rtoes 14.9456
lfemur -1.5916 -6.80803 -15.7203
ltibia 25.1576
lfoot -5.78725 -14.2545
ltoes -16.885
203
root -1.99137 15.9255 31.9145 -168.658 -10.3134 -178.899
lowerback -8.34738 -3.32701 -2.96877
upperback 1.70548 -4.14499 0.272321
thorax 6.70649 -2.15769 1.36155
lowerneck 0.300391 -1.7304 -5.28482
upperneck -5.799 -2.24555 10.1658
head -1.74338 -1.3516 4.36329
rclavicle -3.60794e-014 2.78299e-015
rhumerus -37.5977 -22.2383 -75.5083
rradius 28.774
rwrist 31.8546
rhand 1.22179 -6.58886
rfingers 7.12502
rthumb 26.7601 -34.7162
lclavicle -3.60794e-014 2.78299e-015
lhumerus -23.6221 8.18137 83.9797
lradius 20.0626
lwrist -28.2963
lhand -8.37144 8.00856
lfingers 7.12502
lthumb 17.5514 37.2363
rfemur -38.4282 -2.9321 21.9611
rtibia 38.257
rfoot -13.1582 7.35455
rtoes 15.1001
lfemur -1.98708 -6.91573 -15.5656
ltibia 26.1505
lfoot -4.86426 -13.6497
ltoes -18.9935
204
root -1.94865 15.9449 31.7983 -168.561 -10.2264 -178.93
lowerback -8.34296 -3.22492 -3.01432
upperback 1.76511 -3.99485 0.107865
thorax 6.75043 -2.08393 1.23533
lowerneck 0.195384 -1.63478 -5.24187
upperneck -5.41628 -2.12532 10.1412
head -1.60895 -1.27788 4.33415
rclavicle -2.71341e-014 -1.27222e-014
rhumerus -37.4066 -22.0389 -75.9287
rradius 28.941
rwrist 31.9661
rhand 1.01536 -6.50467
rfingers 7.12502
rthumb 26.5626 -34.662
lclavicle -2.71341e-014 -1.27222e-014
lhumerus -23.0697 7.5243 84.0815
lradius 20.6665
lwrist -27.4894
lhand -8.85268 7.77269
lfingers 7.12502
lthumb 17.0882 37.0412
rfemur -38.0898 -3.14231 22.2684
rtibia 38.2084
rfoot -13.4818 7.68535
rtoes 15.0611
lfemur -2.52441 -6.82916 -15.4092
ltibia 27.5614
lfoot -3.91203 -12.982
ltoes -21.0752
205
root -1.9048 15.9578 31.6848 -168.569 -10.2471 -178.793
lowerback -8.23639 -3.14351 -2.94828
upperback 1.8403 -3.89345 0.0596185
thorax 6.756 -2.03173 1.16645
lowerneck 0.0827781 -1.54188 -5.28289
upperneck -5.13924 -2.00442 10.0427
head -1.50817 -1.2016 4.29797
rclavicle -1.37161e-014 1.27222e-014
rhumerus -37.2427 -21.7125 -76.2931
rradius 29.1654
rwrist 31.9292
rhand 0.893893 -6.46812
rfingers 7.12502
rthumb 26.4463 -34.643
lclavicle -1.37161e-014 1.27222e-014
lhumerus -22.5106 6.83441 84.3257
lradius 21.2875
lwrist -26.2431
lhand -9.06518 7.95086
lfingers 7.12502
lthumb 16.8837 37.2369
rfemur -37.6682 -3.44175 22.7653
rtibia 38.1514
rfoot -13.7668 8.03798
rtoes 13.7825
lfemur -3.27206 -7.09178 -15.1048
ltibia 29.4672
lfoot -2.91626 -12.1993
ltoes -20.421
206
root -1.864 15.9502 31.5795 -168.541 -10.2028 -178.672
lowerback -8.08352 -3.0326 -2.87624
upperback 1.85981 -3.75594 0.0250521
thorax 6.67515 -1.96071 1.11796
lowerneck 0.204147 -1.44194 -5.33195
upperneck -5.09814 -1.86745 9.82446
head -1.52936 -1.1231 4.22966
rclavicle 3.72721e-014 -8.74653e-015
rhumerus -37.0915 -21.3208 -76.5979
rradius 29.2833
rwrist 31.6717
rhand 0.787862 -6.34336
rfingers 7.12502
rthumb 26.3448 -34.5335
lclavicle 3.72721e-014 -8.74653e-015
lhumerus -22.0442 6.18027 84.5772
lradius 21.917
lwrist -24.944
lhand -9.26051 8.07462
lfingers 7.12502
lthumb 16.6957 37.3766
rfemur -37.3845 -3.73469 23.2341
rtibia 38.0816
rfoot -14.1091 8.52909
rtoes 14.4988
lfemur -4.31657 -8.17528 -15.0427
ltibia 31.9609
lfoot -2.21045 -10.646
ltoes -18.174
207
root -1.82476 15.9453 31.4769 -168.518 -10.1726 -178.621
lowerback -7.91205 -2.89783 -2.76617
upperback 1.89118 -3.58572 -0.115927
thorax 6.58561 -1.87053 0.941711
lowerneck 0.493641 -1.41103 -5.16313
upperneck -5.23119 -1.82214 9.5394
head -1.63141 -1.10183 4.10136
rclavicle 6.15239e-014 1.98785e-014
rhumerus -36.9881 -21.0377 -76.9827
rradius 29.4333
rwrist 31.2997
rhand 0.813319 -6.27427
rfingers 7.12502
rthumb 26.3692 -34.4608
lclavicle 6.15239e-014 1.98785e-014
lhumerus -21.6672 5.71074 84.6405
lradius 22.5962
lwrist -24.0388
lhand -9.20605 8.1167
lfingers 7.12502
lthumb 16.7481 37.4143
rfemur -37.0772 -4.14218 23.6478
rtibia 37.9696
rfoot -14.6437 9.19963
rtoes 17.6477
lfemur -5.65305 -8.63673 -15.0264
ltibia 34.9838
lfoot -1.39524 -9.31118
ltoes -18.7176
208
root -1.78557 15.95 31.3771 -168.47 -10.2947 -178.523
lowerback -7.76949 -2.79187 -2.57782
upperback 1.91827 -3.46145 -0.244041
thorax 6.50722 -1.80008 0.726872
lowerneck 0.436341 -1.32646 -5.20015
upperneck -4.96746 -1.71377 9.5617
head -1.5433 -1.03869 4.10951
rclavicle 3.47873e-014 -2.3059e-014
rhumerus -37.0204 -20.6959 -77.3793
rradius 29.7404
rwrist 30.8454
rhand 0.860681 -6.31651
rfingers 7.12502
rthumb 26.4145 -34.4962
lclavicle 3.47873e-014 -2.3059e-014
lhumerus -21.373 5.34479 84.6538
lradius 23.2389
lwrist -23.3596
lhand -9.23553 7.94375
lfingers 7.12502
lthumb 16.7197 37.2437
rfemur -36.7131 -4.64835 24.1079
rtibia 37.8236
rfoot -15.1908 9.79053
rtoes 20.0297
lfemur -7.45169 -8.5903 -14.8471
ltibia 38.4781
lfoot -0.349727 -8.48664
ltoes -20.9957
209
root -1.74869 15.961 31.2831 -168.301 -10.5468 -178.563
lowerback -7.63314 -2.73861 -2.54596
upperback 1.88248 -3.39423 -0.333884
thorax 6.38121 -1.7638 0.632671
lowerneck -0.0904827 -1.13944 -5.68924
upperneck -4.18644 -1.47986 10.0207
head -1.2092 -0.894938 4.34901
rclavicle 3.69739e-014 3.97569e-015
rhumerus -37.0902 -20.301 -77.626
rradius 29.968
rwrist 30.5151
rhand 0.677958 -6.13617
rfingers 7.12502
rthumb 26.2396 -34.342
lclavicle 3.69739e-014 3.97569e-015
lhumerus -21.1358 4.92878 84.7727
lradius 23.7772
lwrist -22.6128
lhand -9.68234 7.14864
lfingers 7.12502
lthumb 16.2895 36.4844
rfemur -36.4115 -5.24893 24.4094
rtibia 37.5891
rfoot -15.5413 10.2425
rtoes 21.409
lfemur -9.70095 -8.38419 -14.773
ltibia 42.2761
lfoot 0.690085 -8.17739
ltoes -25.0155
210
root -1.71396 15.9736 31.1927 -168.115 -10.9409 -178.616
lowerback -7.50866 -2.71156 -2.47749
upperback 1.87411 -3.36475 -0.433006
thorax 6.2898 -1.74507 0.5017
lowerneck -0.449776 -1.03138 -5.93851
upperneck -3.7318 -1.34355 10.2381
head -1.00649 -0.809261 4.4663
rclavicle 6.67916e-014 -1.74931e-014
rhumerus -37.018 -19.9352 -77.9334
rradius 30.1396
rwrist 30.1579
rhand 0.557587 -6.06857
rfingers 7.12502
rthumb 26.1243 -34.2915
lclavicle 6.67916e-014 -1.74931e-014
lhumerus -20.8116 4.57679 84.8904
lradius 24.209
lwrist -21.9148
lhand -10.0127 6.14251
lfingers 7.12502
lthumb 15.9714 35.5041
rfemur -36.1139 -5.8981 24.6785
rtibia 37.3106
rfoot -15.8001 10.6404
rtoes 22.7885
lfemur -12.1783 -7.98689 -14.7156
ltibia 46.2384
lfoot 2.64773 -6.63781
ltoes -22.2639
